<svg xmlns="http://www.w3.org/2000/svg" xmlns:xlink="http://www.w3.org/1999/xlink" width="500" zoomAndPan="magnify" viewBox="0 0 375.12 383.03998" height="500" preserveAspectRatio="xMidYMid meet" version="1.0"><defs><clipPath id="c199363dc1"><path d="M 66.730469 124.039062 L 307.390625 124.039062 L 307.390625 205.445312 L 66.730469 205.445312 Z M 66.730469 124.039062 " clip-rule="nonzero"/></clipPath><clipPath id="9f5284fe47"><path d="M 66.730469 63.636719 L 307.828125 63.636719 L 307.828125 175.855469 L 66.730469 175.855469 Z M 66.730469 63.636719 " clip-rule="nonzero"/></clipPath><clipPath id="1624b70cf5"><path d="M 92.167969 63.636719 L 281.953125 63.636719 C 296.003906 63.636719 307.390625 75.023438 307.390625 89.070312 L 307.390625 150.417969 C 307.390625 164.464844 296.003906 175.855469 281.953125 175.855469 L 92.167969 175.855469 C 78.121094 175.855469 66.730469 164.464844 66.730469 150.417969 L 66.730469 89.070312 C 66.730469 75.023438 78.121094 63.636719 92.167969 63.636719 Z M 92.167969 63.636719 " clip-rule="nonzero"/></clipPath><clipPath id="4a57bec9af"><path d="M 66.730469 198.207031 L 307.828125 198.207031 L 307.828125 310.425781 L 66.730469 310.425781 Z M 66.730469 198.207031 " clip-rule="nonzero"/></clipPath><clipPath id="e96548f6bb"><path d="M 92.167969 198.207031 L 281.953125 198.207031 C 296.003906 198.207031 307.390625 209.597656 307.390625 223.644531 L 307.390625 284.992188 C 307.390625 299.039062 296.003906 310.425781 281.953125 310.425781 L 92.167969 310.425781 C 78.121094 310.425781 66.730469 299.039062 66.730469 284.992188 L 66.730469 223.644531 C 66.730469 209.597656 78.121094 198.207031 92.167969 198.207031 Z M 92.167969 198.207031 " clip-rule="nonzero"/></clipPath><clipPath id="e2a162da6d"><path d="M 66.730469 188.523438 L 307.390625 188.523438 L 307.390625 270.976562 L 66.730469 270.976562 Z M 66.730469 188.523438 " clip-rule="nonzero"/></clipPath><clipPath id="74b158cf5c"><path d="M 104 103.855469 L 269.96875 103.855469 L 269.96875 269.9375 L 104 269.9375 Z M 104 103.855469 " clip-rule="nonzero"/></clipPath></defs><g clip-path="url(#c199363dc1)"><path fill="#2cb9c7" d="M 66.730469 124.039062 L 307.453125 124.039062 L 307.453125 205.445312 L 66.730469 205.445312 Z M 66.730469 124.039062 " fill-opacity="1" fill-rule="nonzero"/></g><g clip-path="url(#9f5284fe47)"><g clip-path="url(#1624b70cf5)"><path fill="#2cb9c7" d="M 66.730469 63.636719 L 307.386719 63.636719 L 307.386719 175.855469 L 66.730469 175.855469 Z M 66.730469 63.636719 " fill-opacity="1" fill-rule="nonzero"/></g></g><g clip-path="url(#4a57bec9af)"><g clip-path="url(#e96548f6bb)"><path fill="#f39c12" d="M 66.730469 198.207031 L 307.386719 198.207031 L 307.386719 310.425781 L 66.730469 310.425781 Z M 66.730469 198.207031 " fill-opacity="1" fill-rule="nonzero"/></g></g><g clip-path="url(#e2a162da6d)"><path fill="#f39c12" d="M 66.730469 188.523438 L 307.328125 188.523438 L 307.328125 270.976562 L 66.730469 270.976562 Z M 66.730469 188.523438 " fill-opacity="1" fill-rule="nonzero"/></g><g clip-path="url(#74b158cf5c)"><path fill="#ffffff" d="M 244.554688 131.535156 C 244.554688 131.535156 252.109375 137.34375 262.933594 138.214844 C 264.15625 138.300781 264.769531 139.699219 263.984375 140.660156 C 260.535156 144.851562 251.410156 152.667969 234.6875 146.511719 C 234.6875 146.511719 240.277344 153.671875 246.695312 156.988281 C 247.742188 157.554688 247.742188 159.039062 246.695312 159.609375 C 241.148438 162.578125 227.832031 167.730469 219.015625 155.328125 C 219.015625 155.328125 209.148438 170.261719 192.863281 157.382812 L 192.863281 264.652344 C 192.863281 266.835938 191.597656 268.710938 189.761719 269.628906 C 188.976562 270.023438 188.105469 270.195312 187.144531 270.195312 C 184.128906 270.109375 181.773438 267.53125 181.773438 264.476562 L 181.773438 157.335938 L 181.160156 157.335938 C 164.832031 170.261719 155.011719 155.285156 155.011719 155.285156 C 146.191406 167.640625 132.917969 162.488281 127.332031 159.5625 C 126.28125 158.996094 126.28125 157.46875 127.332031 156.945312 C 133.792969 153.625 139.335938 146.464844 139.335938 146.464844 C 122.660156 152.621094 113.535156 144.808594 110.085938 140.660156 C 109.300781 139.742188 109.910156 138.347656 111.132812 138.214844 C 121.960938 137.34375 129.511719 131.535156 129.511719 131.535156 C 110.738281 133.105469 105.632812 121.972656 104.277344 116.910156 C 103.972656 115.816406 104.933594 114.8125 106.023438 115.074219 C 113.316406 116.648438 122.265625 116.515625 131.738281 115.511719 C 136.367188 115.03125 141.082031 114.332031 145.839844 113.503906 C 167.234375 109.75 168.632812 140.703125 181.207031 140.703125 L 181.816406 140.703125 L 181.816406 130.3125 C 176.535156 128 172.996094 122.410156 173.695312 116.078125 C 174.4375 109.75 179.589844 104.683594 185.921875 104.074219 C 187.929688 103.855469 189.894531 104.117188 191.683594 104.683594 C 197.140625 106.519531 201.113281 111.671875 201.113281 117.738281 C 201.113281 123.371094 197.753906 128.171875 192.90625 130.3125 L 192.90625 140.703125 C 205.480469 140.703125 206.832031 109.792969 228.269531 113.503906 C 242.765625 116.035156 257.257812 117.390625 268.085938 115.074219 C 269.179688 114.859375 270.140625 115.863281 269.832031 116.910156 C 268.4375 121.929688 263.328125 133.105469 244.554688 131.535156 Z M 244.554688 131.535156 " fill-opacity="1" fill-rule="nonzero"/></g><path fill="#ffffff" d="M 234.121094 173.011719 C 234.121094 147.863281 213.820312 145.417969 206.222656 149.523438 C 204.867188 150.265625 203.953125 151.183594 203.601562 152.230469 C 201.289062 159.171875 204.738281 169.957031 217.484375 171.484375 C 217.484375 171.484375 225.695312 183.097656 187.363281 190.125 C 149.027344 183.140625 157.238281 171.484375 157.238281 171.484375 C 169.941406 169.957031 173.433594 159.171875 171.121094 152.230469 C 170.945312 151.660156 170.597656 151.136719 170.074219 150.65625 C 164.441406 145.199219 140.601562 145.722656 140.601562 173.011719 C 140.601562 185.890625 150.207031 192.746094 162.300781 197.15625 C 150.164062 203.222656 147.542969 211.691406 149.859375 220.382812 C 151.210938 225.488281 157.890625 232.476562 171.949219 237.671875 C 168.71875 239.851562 166.449219 242.472656 165.75 245.835938 C 164.308594 252.644531 167.671875 257.492188 170.507812 260.199219 C 171.25 260.898438 172.429688 260.199219 172.167969 259.195312 C 172.167969 259.152344 172.125 259.105469 172.125 259.019531 C 170.640625 252.996094 175.136719 246.75 187.40625 242.34375 C 199.847656 246.796875 204.300781 253.125 202.640625 259.195312 C 202.378906 260.15625 203.601562 260.851562 204.300781 260.15625 C 207.140625 257.449219 210.5 252.601562 209.058594 245.789062 C 208.363281 242.472656 206.046875 239.851562 202.859375 237.625 C 216.917969 232.476562 223.597656 225.445312 224.953125 220.335938 C 227.265625 211.605469 224.644531 203.179688 212.507812 197.109375 C 224.558594 192.789062 234.121094 185.933594 234.121094 173.011719 Z M 211.503906 215.796875 C 211.503906 223.480469 199.238281 226.84375 187.316406 230.859375 C 175.441406 226.84375 163.128906 223.480469 163.128906 215.796875 C 163.128906 209.074219 174.046875 206.410156 187.316406 203.574219 C 200.589844 206.410156 211.503906 209.03125 211.503906 215.796875 Z M 211.503906 215.796875 " fill-opacity="1" fill-rule="nonzero"/><path fill="#ffffff" d="M 202.773438 237.671875 C 200.066406 238.675781 197.054688 239.589844 193.78125 240.421875 C 191.421875 241.03125 189.28125 241.6875 187.316406 242.386719 C 185.351562 241.6875 183.214844 241.03125 180.855469 240.421875 C 177.582031 239.589844 174.570312 238.675781 171.863281 237.671875 C 175.964844 234.875 181.597656 232.78125 187.316406 230.816406 C 193.039062 232.78125 198.667969 234.875 202.773438 237.671875 Z M 190.199219 190.605469 C 189.195312 190.429688 188.277344 190.257812 187.363281 190.125 C 186.445312 190.300781 185.484375 190.476562 184.523438 190.605469 C 174.960938 192.175781 167.714844 194.449219 162.300781 197.15625 C 170.246094 200.035156 179.242188 201.828125 187.363281 203.574219 C 195.480469 201.828125 204.519531 200.035156 212.421875 197.15625 C 207.050781 194.449219 199.761719 192.222656 190.199219 190.605469 Z M 190.199219 190.605469 " fill-opacity="1" fill-rule="nonzero"/><path fill="#ffffff" d="M 156.449219 158.910156 C 155.402344 158.910156 154.441406 158.253906 154.050781 157.292969 C 153.65625 156.289062 153.960938 155.15625 154.792969 154.457031 C 155.621094 153.714844 156.886719 153.671875 157.804688 154.238281 C 158.675781 154.804688 159.15625 155.851562 158.941406 156.902344 C 158.722656 158.035156 157.671875 158.910156 156.449219 158.910156 Z M 220.105469 156.902344 C 220.324219 155.851562 219.886719 154.761719 218.96875 154.195312 C 218.054688 153.625 216.832031 153.671875 216 154.367188 C 215.171875 155.023438 214.867188 156.203125 215.214844 157.207031 C 215.566406 158.210938 216.570312 158.910156 217.617188 158.910156 C 218.796875 158.910156 219.84375 158.035156 220.105469 156.902344 Z M 220.105469 156.902344 " fill-opacity="1" fill-rule="nonzero"/></svg>