<svg xmlns="http://www.w3.org/2000/svg" xmlns:xlink="http://www.w3.org/1999/xlink" width="500" zoomAndPan="magnify" viewBox="0 0 375 374.999991" height="500" preserveAspectRatio="xMidYMid meet" version="1.0"><path fill="#ffc136" d="M 267.105469 79.605469 C 267.105469 80.90625 267.070312 82.207031 267.007812 83.507812 C 266.945312 84.8125 266.847656 86.109375 266.71875 87.40625 C 266.59375 88.703125 266.433594 89.996094 266.242188 91.285156 C 266.050781 92.574219 265.828125 93.855469 265.574219 95.132812 C 265.320312 96.410156 265.035156 97.683594 264.71875 98.945312 C 264.402344 100.210938 264.054688 101.464844 263.675781 102.710938 C 263.296875 103.957031 262.890625 105.195312 262.449219 106.421875 C 262.011719 107.648438 261.542969 108.863281 261.042969 110.066406 C 260.546875 111.269531 260.019531 112.460938 259.460938 113.636719 C 258.902344 114.816406 258.316406 115.980469 257.703125 117.128906 C 257.089844 118.277344 256.449219 119.410156 255.777344 120.527344 C 255.109375 121.644531 254.410156 122.746094 253.6875 123.828125 C 252.964844 124.914062 252.214844 125.976562 251.4375 127.023438 C 250.664062 128.070312 249.859375 129.097656 249.035156 130.101562 C 248.207031 131.109375 247.355469 132.097656 246.480469 133.0625 C 245.609375 134.027344 244.710938 134.96875 243.789062 135.890625 C 242.867188 136.8125 241.921875 137.710938 240.957031 138.585938 C 239.992188 139.460938 239.007812 140.3125 238 141.136719 C 236.992188 141.964844 235.964844 142.765625 234.917969 143.542969 C 233.875 144.316406 232.808594 145.066406 231.726562 145.792969 C 230.640625 146.515625 229.542969 147.210938 228.425781 147.882812 C 227.308594 148.550781 226.171875 149.195312 225.023438 149.808594 C 223.875 150.421875 222.710938 151.007812 221.535156 151.5625 C 220.355469 152.121094 219.167969 152.648438 217.964844 153.148438 C 216.757812 153.644531 215.542969 154.113281 214.316406 154.554688 C 213.089844 154.992188 211.855469 155.402344 210.609375 155.78125 C 209.359375 156.15625 208.105469 156.503906 206.84375 156.820312 C 205.578125 157.136719 204.308594 157.421875 203.03125 157.675781 C 201.753906 157.933594 200.46875 158.15625 199.179688 158.34375 C 197.890625 158.535156 196.597656 158.695312 195.300781 158.824219 C 194.007812 158.953125 192.707031 159.046875 191.40625 159.109375 C 190.105469 159.175781 188.804688 159.207031 187.5 159.207031 C 186.195312 159.207031 184.894531 159.175781 183.59375 159.109375 C 182.292969 159.046875 180.992188 158.953125 179.699219 158.824219 C 178.402344 158.695312 177.109375 158.535156 175.820312 158.34375 C 174.53125 158.15625 173.246094 157.933594 171.96875 157.675781 C 170.691406 157.421875 169.421875 157.136719 168.15625 156.820312 C 166.894531 156.503906 165.640625 156.15625 164.390625 155.78125 C 163.144531 155.402344 161.910156 154.992188 160.683594 154.554688 C 159.457031 154.113281 158.242188 153.644531 157.035156 153.148438 C 155.832031 152.648438 154.644531 152.121094 153.464844 151.5625 C 152.289062 151.007812 151.125 150.421875 149.976562 149.808594 C 148.824219 149.195312 147.691406 148.550781 146.574219 147.882812 C 145.457031 147.210938 144.359375 146.515625 143.273438 145.792969 C 142.191406 145.066406 141.125 144.316406 140.082031 143.542969 C 139.035156 142.765625 138.007812 141.964844 137 141.136719 C 135.992188 140.3125 135.007812 139.460938 134.042969 138.585938 C 133.078125 137.710938 132.132812 136.8125 131.210938 135.890625 C 130.289062 134.96875 129.390625 134.027344 128.519531 133.0625 C 127.644531 132.097656 126.792969 131.109375 125.964844 130.101562 C 125.140625 129.097656 124.335938 128.070312 123.5625 127.023438 C 122.785156 125.976562 122.035156 124.914062 121.3125 123.828125 C 120.589844 122.746094 119.890625 121.644531 119.222656 120.527344 C 118.550781 119.410156 117.910156 118.277344 117.296875 117.128906 C 116.683594 115.980469 116.097656 114.816406 115.539062 113.636719 C 114.980469 112.460938 114.453125 111.269531 113.957031 110.066406 C 113.457031 108.863281 112.988281 107.648438 112.550781 106.421875 C 112.109375 105.195312 111.703125 103.957031 111.324219 102.710938 C 110.945312 101.464844 110.597656 100.210938 110.28125 98.945312 C 109.964844 97.683594 109.679688 96.410156 109.425781 95.132812 C 109.171875 93.855469 108.949219 92.574219 108.757812 91.285156 C 108.566406 89.996094 108.40625 88.703125 108.28125 87.40625 C 108.152344 86.109375 108.054688 84.8125 107.992188 83.507812 C 107.929688 82.207031 107.894531 80.90625 107.894531 79.605469 C 107.894531 78.300781 107.929688 77 107.992188 75.699219 C 108.054688 74.394531 108.152344 73.097656 108.28125 71.800781 C 108.40625 70.503906 108.566406 69.210938 108.757812 67.921875 C 108.949219 66.632812 109.171875 65.351562 109.425781 64.074219 C 109.679688 62.796875 109.964844 61.523438 110.28125 60.261719 C 110.597656 58.996094 110.945312 57.742188 111.324219 56.496094 C 111.703125 55.25 112.109375 54.011719 112.550781 52.785156 C 112.988281 51.558594 113.457031 50.34375 113.957031 49.140625 C 114.453125 47.9375 114.980469 46.746094 115.539062 45.570312 C 116.097656 44.390625 116.683594 43.226562 117.296875 42.078125 C 117.910156 40.929688 118.550781 39.796875 119.222656 38.679688 C 119.890625 37.5625 120.589844 36.460938 121.3125 35.378906 C 122.035156 34.296875 122.785156 33.230469 123.5625 32.183594 C 124.335938 31.136719 125.140625 30.109375 125.964844 29.105469 C 126.792969 28.097656 127.644531 27.109375 128.519531 26.144531 C 129.390625 25.179688 130.289062 24.238281 131.210938 23.316406 C 132.132812 22.394531 133.074219 21.496094 134.042969 20.621094 C 135.007812 19.746094 135.992188 18.894531 137 18.070312 C 138.007812 17.242188 139.035156 16.441406 140.082031 15.664062 C 141.125 14.890625 142.191406 14.140625 143.273438 13.414062 C 144.359375 12.691406 145.457031 11.996094 146.574219 11.324219 C 147.691406 10.65625 148.824219 10.011719 149.976562 9.398438 C 151.125 8.785156 152.289062 8.199219 153.464844 7.644531 C 154.644531 7.085938 155.832031 6.558594 157.035156 6.058594 C 158.242188 5.5625 159.457031 5.09375 160.683594 4.652344 C 161.910156 4.214844 163.144531 3.804688 164.390625 3.425781 C 165.640625 3.050781 166.894531 2.703125 168.15625 2.386719 C 169.421875 2.070312 170.691406 1.785156 171.96875 1.53125 C 173.246094 1.277344 174.53125 1.050781 175.820312 0.863281 C 177.109375 0.671875 178.402344 0.511719 179.699219 0.382812 C 180.992188 0.253906 182.292969 0.160156 183.59375 0.0976562 C 184.894531 0.03125 186.195312 0 187.5 0 C 188.804688 0 190.105469 0.03125 191.40625 0.0976562 C 192.707031 0.160156 194.007812 0.253906 195.300781 0.382812 C 196.597656 0.511719 197.890625 0.671875 199.179688 0.863281 C 200.46875 1.050781 201.753906 1.277344 203.03125 1.53125 C 204.308594 1.785156 205.578125 2.070312 206.84375 2.386719 C 208.105469 2.703125 209.359375 3.050781 210.609375 3.425781 C 211.855469 3.804688 213.089844 4.214844 214.316406 4.652344 C 215.542969 5.09375 216.757812 5.5625 217.964844 6.058594 C 219.167969 6.558594 220.355469 7.085938 221.535156 7.644531 C 222.710938 8.199219 223.875 8.785156 225.023438 9.398438 C 226.171875 10.011719 227.308594 10.65625 228.425781 11.324219 C 229.542969 11.996094 230.640625 12.691406 231.726562 13.414062 C 232.808594 14.140625 233.875 14.890625 234.917969 15.664062 C 235.964844 16.441406 236.992188 17.242188 238 18.070312 C 239.007812 18.894531 239.992188 19.746094 240.957031 20.621094 C 241.921875 21.496094 242.867188 22.394531 243.789062 23.316406 C 244.710938 24.238281 245.609375 25.179688 246.480469 26.144531 C 247.355469 27.109375 248.207031 28.097656 249.035156 29.105469 C 249.859375 30.109375 250.664062 31.136719 251.4375 32.183594 C 252.214844 33.230469 252.964844 34.296875 253.6875 35.378906 C 254.410156 36.460938 255.109375 37.5625 255.777344 38.679688 C 256.449219 39.796875 257.089844 40.929688 257.703125 42.078125 C 258.316406 43.226562 258.902344 44.390625 259.460938 45.570312 C 260.019531 46.746094 260.546875 47.9375 261.042969 49.140625 C 261.542969 50.34375 262.011719 51.558594 262.449219 52.785156 C 262.890625 54.011719 263.296875 55.25 263.675781 56.496094 C 264.054688 57.742188 264.402344 58.996094 264.71875 60.261719 C 265.035156 61.523438 265.320312 62.796875 265.574219 64.074219 C 265.828125 65.351562 266.050781 66.632812 266.242188 67.921875 C 266.433594 69.210938 266.59375 70.503906 266.71875 71.800781 C 266.847656 73.097656 266.945312 74.394531 267.007812 75.699219 C 267.070312 77 267.105469 78.300781 267.105469 79.605469 Z M 267.105469 79.605469 " fill-opacity="1" fill-rule="nonzero"/><path fill="#ffc136" d="M 62.820312 348.144531 L 62.820312 253.195312 C 45.554688 281.96875 35.007812 315.535156 34.046875 348.144531 Z M 62.820312 348.144531 " fill-opacity="1" fill-rule="nonzero"/><path fill="#ffc136" d="M 263.265625 201.40625 C 240.25 186.0625 214.355469 178.390625 187.5 178.390625 C 160.644531 178.390625 134.75 186.0625 111.734375 201.40625 C 151.054688 204.285156 176.949219 215.792969 187.5 221.546875 C 198.050781 215.792969 223.945312 204.285156 263.265625 201.40625 Z M 263.265625 201.40625 " fill-opacity="1" fill-rule="nonzero"/><path fill="#ffc136" d="M 193.253906 240.730469 C 193.253906 240.730469 192.296875 240.730469 193.253906 240.730469 C 192.296875 240.730469 192.296875 240.730469 193.253906 240.730469 C 191.335938 241.6875 190.378906 241.6875 189.417969 241.6875 C 189.417969 241.6875 188.460938 241.6875 188.460938 241.6875 C 187.5 241.6875 186.539062 241.6875 185.582031 241.6875 C 185.582031 241.6875 184.621094 241.6875 184.621094 241.6875 C 183.664062 241.6875 182.703125 241.6875 182.703125 240.730469 C 181.746094 240.730469 145.300781 216.75 82 221.546875 L 82 354.859375 C 137.628906 351.023438 174.074219 367.328125 187.5 375 C 200.925781 368.285156 237.371094 351.980469 293 354.859375 L 293 220.589844 C 230.660156 216.75 194.214844 239.769531 193.253906 240.730469 Z M 193.253906 240.730469 " fill-opacity="1" fill-rule="nonzero"/><path fill="#ffc136" d="M 312.179688 348.144531 L 340.953125 348.144531 C 339.035156 313.617188 329.445312 281.011719 312.179688 253.195312 Z M 312.179688 348.144531 " fill-opacity="1" fill-rule="nonzero"/></svg>