<?xml version="1.0" standalone="no"?>
<!DOCTYPE svg PUBLIC "-//W3C//DTD SVG 20010904//EN"
 "http://www.w3.org/TR/2001/REC-SVG-20010904/DTD/svg10.dtd">
<svg version="1.0" xmlns="http://www.w3.org/2000/svg"
 width="388.000000pt" height="400.000000pt" viewBox="0 0 388.000000 400.000000"
 preserveAspectRatio="xMidYMid meet">

<g transform="translate(0.000000,400.000000) scale(0.100000,-0.100000)"
fill="#3b355b" stroke="none">
<path d="M1803 3571 c-233 -63 -410 -228 -489 -456 -26 -72 -28 -93 -29 -215
0 -122 3 -143 29 -224 67 -205 231 -371 438 -443 57 -20 99 -27 191 -31 143
-6 223 11 347 71 69 33 102 58 175 132 74 73 99 106 132 175 61 124 77 204 70
347 -4 93 -10 134 -31 192 -72 205 -235 366 -441 437 -109 37 -284 44 -392 15z"/>
<path d="M1440 2162 c-37 -19 -72 -49 -111 -95 -110 -131 -170 -285 -195 -499
l-6 -57 44 -11 c139 -35 263 -225 283 -435 7 -69 6 -70 -24 -99 -18 -17 -31
-40 -31 -54 0 -42 -18 -62 -55 -62 -36 0 -55 20 -55 59 0 25 43 56 66 47 9 -3
29 2 45 11 25 15 29 23 29 64 0 25 -9 80 -19 121 -46 180 -148 297 -274 314
-164 23 -316 -158 -342 -407 -7 -65 -6 -67 21 -86 16 -11 35 -18 42 -16 24 9
62 -26 62 -55 0 -35 -16 -52 -50 -52 -37 0 -64 32 -56 65 5 20 0 31 -23 52
l-30 28 9 79 c23 195 121 361 243 412 l43 18 12 90 c6 50 19 120 28 156 23 93
93 235 148 303 l47 58 -33 -17 c-77 -39 -203 -131 -282 -205 -227 -213 -381
-509 -432 -832 l-16 -98 43 -57 c218 -290 545 -465 1009 -538 165 -27 625 -27
790 0 408 64 705 205 922 434 36 38 80 91 98 117 l33 48 -16 91 c-76 426 -321
785 -689 1009 -34 20 -66 37 -71 37 -5 0 10 -21 33 -47 74 -84 138 -208 182
-352 12 -40 17 -45 59 -57 79 -23 149 -118 149 -203 0 -112 -99 -210 -213
-211 -221 -1 -300 287 -108 397 25 15 47 27 49 28 1 1 -7 33 -19 71 -43 140
-122 266 -230 370 -76 72 -117 100 -128 88 -5 -5 -102 -175 -217 -379 -258
-459 -240 -430 -250 -413 -8 12 -123 226 -331 615 -61 113 -104 183 -113 183
-8 0 -40 -13 -70 -28z m978 -1039 l3 -73 74 0 75 0 0 -60 0 -60 -75 0 -75 0 0
-75 0 -75 -60 0 -60 0 0 75 0 75 -75 0 -75 0 0 60 0 60 75 0 75 0 0 75 0 76
58 -3 57 -3 3 -72z"/>
<path d="M2779 1557 c-112 -75 -75 -236 59 -254 83 -11 152 51 152 137 0 113
-118 179 -211 117z"/>
</g>
</svg>
